<svg version="1.2" xmlns="http://www.w3.org/2000/svg" viewBox="0 0 286 123" width="286" height="123">
	<defs>
		<linearGradient id="g1" x2="1" gradientUnits="userSpaceOnUse" gradientTransform="matrix(41.267,0,0,41.013,37.878,25.802)">
			<stop offset="0" stop-color="#edd145"/>
			<stop offset="1" stop-color="#edd145"/>
		</linearGradient>
	</defs>
	<style>
		.s0 { fill: #e73542 } 
		.s1 { fill: #0a56a6 } 
		.s2 { fill: #121822 } 
		.s3 { fill: url(#g1) } 
		.s4 { fill: #231f20 } 
	</style>
	<g id="&lt;Group&gt;">
		<g id="&lt;Group&gt;">
			<g id="&lt;Group&gt;">
				<path id="&lt;Compound Path&gt;" class="s0" d="m137.65 57.89h-4.36c-0.25-1.64-1.48-2.64-3.5-2.64-1.97 0-3.07 0.79-3.07 1.93 0 1.41 1.47 1.9 5.16 2.66 4.36 0.91 5.84 3.07 5.84 5.9 0 3.62-3.41 5.82-7.63 5.82-4.66 0-8.08-2.53-8.26-6.56h4.34c0.23 1.81 1.81 3.01 4.22 3.01 1.72 0 2.99-0.86 2.99-2.09 0-1.5-1.27-2.11-4.64-2.73-4.1-0.77-6.33-2.46-6.33-6.01 0-3.42 3.39-5.46 7.66-5.46 4.22 0 7.38 2.58 7.58 6.17z"/>
				<path id="&lt;Compound Path&gt;" class="s0" d="m140.21 52.19h14.06v3.66h-9.84v3.85h9.03v3.67h-9.03v4.06h10.05v3.67h-14.27z"/>
				<path id="&lt;Compound Path&gt;" fill-rule="evenodd" class="s0" d="m156.19 61.63c0-5.73 4.34-9.93 10.21-9.93 5.87 0 10.21 4.2 10.21 9.93 0 5.73-4.34 9.93-10.21 9.93-5.87 0-10.21-4.2-10.21-9.93zm16.2 0c0-3.57-2.55-6.13-5.99-6.13-3.43 0-5.98 2.56-5.98 6.13 0 3.55 2.55 6.13 5.98 6.13 3.44 0 5.99-2.58 5.99-6.13z"/>
				<path id="&lt;Compound Path&gt;" class="s0" d="m178.89 52.19h4.22v10.53c0 3.02 1.67 5.04 4.43 5.04 2.76 0 4.44-2.02 4.44-5.04v-10.53h4.22v10.53c0 5.36-3.46 8.84-8.66 8.84-5.19 0-8.65-3.48-8.65-8.84z"/>
				<path id="&lt;Compound Path&gt;" class="s0" d="m203.53 52.19v15.17h9.45v3.74h-13.67v-18.91z"/>
			</g>
			<g id="&lt;Group&gt;">
				<g id="&lt;Group&gt;">
					<path id="&lt;Compound Path&gt;" class="s1" d="m231.94 57.3c0 2.03-0.98 3.77-4.39 7.3l-2.78 2.88h7.55v3.67h-13.89v-2.48l6.36-6.55c2.34-2.41 2.88-3.67 2.88-4.77 0-1.43-0.78-2.38-2.66-2.38-1.77 0-2.72 1.43-2.72 2.91h-4.27c0-3.82 2.89-6.67 6.99-6.67 4.36 0 6.93 2.57 6.93 6.09z"/>
					<path id="&lt;Compound Path&gt;" fill-rule="evenodd" class="s1" d="m249.05 61.43c0 6.79-3.2 10.19-7.44 10.19-4.24 0-7.43-3.4-7.43-10.19 0-6.82 3.19-10.22 7.43-10.22 4.24 0 7.44 3.4 7.44 10.22zm-10.77 0c0 4.41 1.43 6.41 3.33 6.41 1.91 0 3.34-2 3.34-6.41 0-4.43-1.43-6.44-3.34-6.44-1.9 0-3.33 2.01-3.33 6.44z"/>
					<path id="&lt;Compound Path&gt;" class="s1" d="m264.61 57.3c0 2.03-0.98 3.77-4.39 7.3l-2.79 2.88h7.56v3.67h-13.89v-2.48l6.36-6.55c2.33-2.41 2.88-3.67 2.88-4.77 0-1.43-0.79-2.38-2.67-2.38-1.76 0-2.71 1.43-2.71 2.91h-4.27c0-3.82 2.88-6.67 6.98-6.67 4.36 0 6.94 2.57 6.94 6.09z"/>
					<path id="&lt;Compound Path&gt;" class="s1" d="m280.09 54.3l-7.22 16.85h-4.52l6.69-15.66h-8.29v-3.76h13.34z"/>
				</g>
			</g>
			<g id="&lt;Group&gt;">
				<g id="&lt;Group&gt;">
					<path id="&lt;Compound Path&gt;" class="s2" d="m153.94 45.49h-9.19l-3.04-13.83h-0.13l-2.97 13.83h-9.16l-7.62-25.9h8.8l3.62 15.31h0.07l3.49-15.31h7.97l3.39 15.53h0.13l3.62-15.53h8.87z"/>
					<path id="&lt;Compound Path&gt;" class="s2" d="m163.43 35.95l-10.56-16.36h10.21l4.96 9.35h0.07l5.15-9.35h10.18l-10.75 16.36v9.54h-9.26z"/>
					<g id="&lt;Group&gt;">
						<g id="&lt;Group&gt;">
							<path id="&lt;Compound Path&gt;" fill-rule="evenodd" class="s2" d="m181.48 19.59h14.47c9.73 0 13.19 6.37 13.19 12.9 0 7.98-4.77 13-14.95 13h-12.71zm9.03 19.37h3.17c5.57 0 6.43-4.16 6.43-6.56 0-1.63-0.51-6.28-7.07-6.28h-2.53z"/>
						</g>
					</g>
				</g>
			</g>
			<g id="&lt;Group&gt;">
				<path id="&lt;Compound Path&gt;" fill-rule="evenodd" class="s3" d="m39.78 40.05c0.26-0.29 0.6-0.53 0.75-0.86q0.89-1.99 2.14-3.78c0.21-0.3 0.24-0.75 0.38-1.23 1.33-1.13 2.71-2.45 4.23-3.56 1.63-1.2 3.24-2.51 5.26-2.92q0.93-0.2 1.86-0.42 0.14-0.02 0.25-0.08c1.71-1.01 3.62-0.84 5.43-1.3 0.86-0.22 1.62-0.01 2.43 0.04 1.17 0.06 2.18 0.58 3.29 0.78 0.61 0.11 1.23 0.54 1.64 1.01 0.49 0.55 1.03 1.02 1.57 1.49 0.13 0.11 0.26 0.27 0.41 0.28 0.6 0.07 0.97 0.43 1.23 0.94 0.98-0.08 1.57 0.61 2.22 1.1 1.03 0.76 1.91 1.68 2.41 2.92q0.02 0.04 0.05 0.07c1.03 1.22 1.39 2.8 2.02 4.24 0.35 0.81 0.69 1.6 0.77 2.5 0.01 0.11 0.05 0.24 0.12 0.32 0.73 0.81 0.59 1.73 0.16 2.74 0.77 0.96 0.87 2.13 0.63 3.39-0.04 0.22 0.03 0.46 0.05 0.69 0.01 0.15 0.07 0.31 0.02 0.43-0.53 1.55-1.08 3.1-1.84 4.57q-0.41 0.84-0.76 1.71c-0.46 1.11-1.29 1.94-1.99 2.87-0.76 1.01-1.46 2.08-2.33 2.97-0.55 0.57-0.92 1.24-1.38 1.85-0.5 0.65-1.13 1.07-1.8 1.46-0.2 0.12-0.45 0.25-0.65 0.23-0.61-0.07-1.06 0.25-1.53 0.58-1.05 0.73-2.21 1.15-3.42 1.35-2.18 0.37-4.37 0.51-6.54 0.27q-0.34-0.03-0.69 0.05c-0.55 0.1-1.05 0.06-1.25-0.24-1.13-0.22-2.07-0.39-3-0.59-0.42-0.09-0.85-0.17-1.21-0.37-1.4-0.76-2.96-1.22-4.14-2.36-0.17-0.17-0.41-0.27-0.63-0.4-1.19-0.66-2.12-1.56-2.76-2.81-0.33-0.66-0.74-1.3-1.24-1.82-0.86-0.89-1.16-2.1-1.76-3.13-0.12-0.19 0.01-0.54 0.03-0.89-0.36-0.4-0.37-0.86-0.06-1.46 0.38-0.76 0.15-1.14-0.85-1.69q0.02-0.33 0.03-0.68c0.01-0.23 0.08-0.53-0.02-0.69-0.48-0.72-0.55-1.55-0.6-2.4-0.02-0.31-0.08-0.62-0.07-0.94 0.05-0.91-0.06-1.76-0.76-2.34 0.28-0.66 0.68-0.12 1.04-0.25q0.09-0.18 0.24-0.49c-0.29-0.08-0.52-0.15-0.83-0.25 1-0.76 1.51-1.72 1.48-2.92zm22.87 17c-0.08 0.17-0.16 0.34-0.28 0.57 0.47-0.04 0.59-0.18 0.28-0.57zm-4.33-22.43l0.01-0.05-0.06 0.02z"/>
				<path id="&lt;Path&gt;" class="s2" d="m107.13 76.52c-0.37-0.66-1.24-1.33-1.3-0.57 0 0-0.3 1.81-0.3 1.82-0.32 1.51-0.62 2.31-1.21 3.5-1.56 3.11-3.53 5.06-5.35 5.4-3.19 0.81-4.12-2.62-4.33-5.7-0.11-4.48 0.24-8.39 0.29-12.8 0.02-1.18-0.48-2.15-0.48-2.15-0.83-1.57-2.11-2.47-3.73-2.61q-0.39-0.03-0.83-0.03c-6.48 0.46-10.02 4.86-10.02 4.86l0.62-2.05c1.85-7.62 0.78-11.49 0.7-11.95-0.09-0.33-0.63-1.76-0.81-2.06-0.81-1.76-2.78-0.85-2.78-0.85-4.45 2.82-5.15 9.43-5.15 9.43 0 0-0.09 1.02-0.09 1.47 0 0 0.01 1.37 0.02 1.58-0.31-1.02-0.69-1.55-1.05-1.34q-0.22 0.14-0.38 0.6c-0.11 0.31-0.23 0.83-0.26 1.31-0.07 0.88-0.02 2.04 0.01 2.61 0.03 0.58 0.19 2.61 0.19 2.61 0 0 0.35 15.18 9.51 10.69 0.87-0.43 1.65-1.03 2.32-1.74 0.73-0.76 1.83-1.93 2.87-3.02q-0.25 2.43-0.26 5.24c0 2.76-0.12 5.35 0.51 7.52 1.64 5.71 6.21 6.38 6.67 6.51 1.61 0.37 3.18 0.34 4.63 0.14 2.51-0.35 4.51-1.61 5.99-3.14 1.44-1.49 2.53-3.31 3.3-4.88 1.19-2.45 1.74-5.18 1.41-7.89-0.16-1.26-0.44-2.04-0.71-2.51z"/>
				<path id="&lt;Path&gt;" class="s2" d="m29 28.16c0 0-5.15-4.44-8.78 0.27 0 0 1.43-4.33-2.34-0.98 0 0-2.89 2.9-5.88 7.72-1.99-1.99-5.32-5.44-6.57-7.4 0 0-2.97-4.17-3.91-0.36 0 0-0.99 1.67 0 3.54 0 0-2.8 2.85 0 5.76 0 0-1.78 1.04 0 1.78 1.38 0.57 3.92 2.55 7.38 2.52-2.08 4.65-3.64 10.22-3.44 16.29 0 0 0.13 3.47 0.46 7.62 0 0 0.28 3.16 1.18-6.03 0 0 0.51 10.14 1.03 13.84 0 0 1.53 2.92 2.63-3.22 0 0 3.18-28.91 17.36-36.08 0 0 5.84-3.09 0.88-5.27z"/>
				<path id="&lt;Path&gt;" class="s0" d="m47.72 40.18c0 0-8.39 5.13-18.92 1.9-10.53-3.23-5.75 11.04 1.14 11.93 0 0-4.58 4.16 9.35 1.39 13.94-2.78 28.37-11.85 24.51-30.9 0 0-5.65-18.76-7.01-18.5-1 0.19 0.66 3.15-0.25 2.37-1.58-1.35-4.62-6.38-3.74-1.73 1.38 7.32 9.46 27.16-5.08 33.54z"/>
				<path id="&lt;Path&gt;" class="s1" d="m80.3 35.26c3.29-0.6 5.93-0.77 2.86 1.09 0 0 18.05-0.95 10.25 4.18 0 0 6.5-0.87 3.6 3.33 0 0-1.08 1.58-6.99 1.25-1.12-0.06-22.13 0.91-25.3 16.07-4.02 19.3-2.54 32.47-0.62 60.68 0 0-2 5.2-3.85-12.24 0 0 0.3 6.2-0.39 6.58-1.93 1.05-3.16-8.75-4.09-11.79 0 0-1.54-8-1.94-13.11-1.79-23.15-2.52-40.21 11.56-49.69 4.54-3.05 9.53-5.37 14.91-6.35z"/>
				<path id="&lt;Path&gt;" class="s2" d="m81.5 2.25c0 0 4.48 0.49 1.62-0.79-2.85-1.28-3.7-0.88-6.29-0.65-2.62 0.23-4.66 4.73-4.43 10.23l-0.91 10.22c0 0-3.04 10.54 8.36 9.03 10.75-1.42 13.62-5.86 14.52-10.69 0.89-4.83-3.97-9.37-3.97-9.37 0 0-3-2.68-0.07 1.21 0 0-0.62-0.22-0.96-0.5-2.9-2.45-6.22-5.38-0.97 4.03 0 0 2.93 5.09-6.72 6.89 0 0-1.52-0.23-1.19-2.26 0.16-1.04 0.16-3.69 0.55-5.72 0.29-1.52 0.3-2.29 1.22-2.74 0.66-0.33 0.75-0.46 1.5-0.95 0.09-0.06 0.54-0.64 0.74-1.05 0.47-1.03 0.83-1.48 1.07-1.68 0.43-0.35 1.46-1.19 1.47-1.74 0.01-0.7-0.64-1.59-1.49-2.04-0.53-0.28-1.17-0.83-4.05-1.43z"/>
			</g>
		</g>
		<g id="&lt;Group&gt;">
			<path id="&lt;Compound Path&gt;" class="s1" d="m122.67 80.59h8.03v24.27h-8.03z"/>
			<path id="&lt;Compound Path&gt;" class="s4" d="m133.36 80.59h8.39l7.79 12.96h0.11v-12.96h7.78v24.27h-8.03l-8.12-13.29h-0.17v13.29h-7.75z"/>
			<path id="&lt;Compound Path&gt;" class="s4" d="m175.06 90.25c-0.05-1.35-0.61-3.93-3.59-3.93-3.35 0-4.3 2.49-4.3 6.3v0.15c0 3.78 0.95 6.3 4.3 6.3 2.62 0 3.62-1.8 3.68-4.11h8.06c0.11 5.19-4.05 10.32-11.52 10.32-8.76 0-12.44-4.44-12.44-12.57 0-8.19 3.96-12.6 12.44-12.6 6.81 0 11.05 3.63 11.35 10.14z"/>
			<path id="&lt;Compound Path&gt;" class="s4" d="m185.06 80.59h8.03v8.91h7.39v-8.91h8.01v24.27h-8.01v-9.09h-7.39v9.09h-8.03z"/>
			<path id="&lt;Compound Path&gt;" class="s4" d="m211.14 80.59h21.62v6.21h-13.59v3.03h12.75v5.79h-12.75v3h13.98v6.24h-22.01z"/>
			<path id="&lt;Compound Path&gt;" fill-rule="evenodd" class="s4" d="m259.29 92.71c0 7.86-3.37 12.57-12.16 12.57-8.76 0-12.16-4.71-12.16-12.57 0-7.89 3.65-12.6 12.16-12.6 8.48 0 12.16 4.71 12.16 12.6zm-7.89 0.06v-0.15c0-3.81-0.9-6.3-4.27-6.3-3.38 0-4.24 2.49-4.24 6.3v0.15c0 3.78 0.84 6.3 4.24 6.3 3.35 0 4.27-2.52 4.27-6.3z"/>
			<path id="&lt;Compound Path&gt;" class="s0" d="m261.11 80.59h8.4l7.78 12.96h0.11v-12.96h7.78v24.27h-8.03l-8.12-13.29h-0.17v13.29h-7.75z"/>
		</g>
	</g>
</svg>